<svg xmlns="http://www.w3.org/2000/svg" enable-background="new 0 0 24 24" height="24" viewBox="0 0 24 24" width="24" fill="#fff"><g><path d="M16.24,9.17L13.41,12l2.83,2.83l-1.41,1.41L12,13.41l-2.83,2.83l-1.41-1.41L10.59,12L7.76,9.17l1.41-1.41L12,10.59 l2.83-2.83L16.24,9.17z M4.93,4.93c-3.91,3.91-3.91,10.24,0,14.14c3.91,3.91,10.24,3.91,14.14,0c3.91-3.91,3.91-10.24,0-14.14 C15.17,1.02,8.83,1.02,4.93,4.93z M18.36,5.64c3.51,3.51,3.51,9.22,0,12.73s-9.22,3.51-12.73,0s-3.51-9.22,0-12.73 C9.15,2.13,14.85,2.13,18.36,5.64z" /></g></svg>